<svg xmlns="http://www.w3.org/2000/svg" viewBox="0 0 360 110" role="img" aria-label="CarolTech"><defs><linearGradient id="g" x1="0" y1="0" x2="1" y2="1"><stop offset="0" stop-color="#f0d58a"/><stop offset="1" stop-color="#b98b35"/></linearGradient></defs><g transform="translate(8 8)"><path d="M78 16A38 38 0 1 0 78 78" fill="none" stroke="#17364d" stroke-width="15" stroke-linecap="round"/><path d="M57 24h18c21 0 30 10 30 24s-9 24-30 24H61V94H45V24zM61 39v18h13c9 0 14-3 14-9s-5-9-14-9z" fill="url(#g)"/><path d="M91 9l3.6 8.4L103 21l-8.4 3.6L91 33l-3.6-8.4L79 21l8.4-3.6z" fill="#f0d58a"/></g><text x="126" y="54" font-family="Arial,Helvetica,sans-serif" font-size="37" font-weight="800" fill="#f7f3e9">CAROL</text><text x="246" y="54" font-family="Arial,Helvetica,sans-serif" font-size="37" font-weight="800" fill="#d8b45e">TECH</text><text x="128" y="79" font-family="Arial,Helvetica,sans-serif" font-size="12" font-weight="700" letter-spacing="2.4" fill="#9fb0bd">SISTEMAS • AUTOMAÇÃO • IA</text></svg>